<?xml version="1.0" encoding="UTF-8" standalone="no"?>
<!-- Created with Inkscape (http://www.inkscape.org/) -->

<svg
   xmlns:dc="http://purl.org/dc/elements/1.1/"
   xmlns:cc="http://creativecommons.org/ns#"
   xmlns:rdf="http://www.w3.org/1999/02/22-rdf-syntax-ns#"
   xmlns:svg="http://www.w3.org/2000/svg"
   xmlns="http://www.w3.org/2000/svg"
   xmlns:sodipodi="http://sodipodi.sourceforge.net/DTD/sodipodi-0.dtd"
   xmlns:inkscape="http://www.inkscape.org/namespaces/inkscape"
   width="297mm"
   height="210mm"
   viewBox="0 0 1052.3622 744.09448"
   id="svg2"
   version="1.1"
   inkscape:version="0.91 r13725"
   sodipodi:docname="drawing.svg">
  <defs
     id="defs4">
    <marker
       inkscape:isstock="true"
       style="overflow:visible;"
       id="marker5559"
       refX="0.0"
       refY="0.0"
       orient="auto"
       inkscape:stockid="Arrow1Lend">
      <path
         transform="scale(0.8) rotate(180) translate(12.5,0)"
         style="fill-rule:evenodd;stroke:#000000;stroke-width:1pt;stroke-opacity:1;fill:#000000;fill-opacity:1"
         d="M 0.0,0.0 L 5.0,-5.0 L -12.5,0.0 L 5.0,5.0 L 0.0,0.0 z "
         id="path5561" />
    </marker>
    <marker
       inkscape:stockid="Arrow1Lend"
       orient="auto"
       refY="0.0"
       refX="0.0"
       id="marker5341"
       style="overflow:visible;"
       inkscape:isstock="true"
       inkscape:collect="always">
      <path
         id="path5343"
         d="M 0.0,0.0 L 5.0,-5.0 L -12.5,0.0 L 5.0,5.0 L 0.0,0.0 z "
         style="fill-rule:evenodd;stroke:#000000;stroke-width:1pt;stroke-opacity:1;fill:#000000;fill-opacity:1"
         transform="scale(0.8) rotate(180) translate(12.5,0)" />
    </marker>
    <marker
       inkscape:stockid="Arrow1Lend"
       orient="auto"
       refY="0.0"
       refX="0.0"
       id="marker5143"
       style="overflow:visible;"
       inkscape:isstock="true"
       inkscape:collect="always">
      <path
         id="path5145"
         d="M 0.0,0.0 L 5.0,-5.0 L -12.5,0.0 L 5.0,5.0 L 0.0,0.0 z "
         style="fill-rule:evenodd;stroke:#000000;stroke-width:1pt;stroke-opacity:1;fill:#000000;fill-opacity:1"
         transform="scale(0.8) rotate(180) translate(12.5,0)" />
    </marker>
    <marker
       inkscape:isstock="true"
       style="overflow:visible;"
       id="marker5053"
       refX="0.0"
       refY="0.0"
       orient="auto"
       inkscape:stockid="Arrow1Lend"
       inkscape:collect="always">
      <path
         transform="scale(0.8) rotate(180) translate(12.5,0)"
         style="fill-rule:evenodd;stroke:#000000;stroke-width:1pt;stroke-opacity:1;fill:#000000;fill-opacity:1"
         d="M 0.0,0.0 L 5.0,-5.0 L -12.5,0.0 L 5.0,5.0 L 0.0,0.0 z "
         id="path5055" />
    </marker>
    <marker
       inkscape:stockid="Arrow1Lend"
       orient="auto"
       refY="0.0"
       refX="0.0"
       id="marker4969"
       style="overflow:visible;"
       inkscape:isstock="true"
       inkscape:collect="always">
      <path
         id="path4971"
         d="M 0.0,0.0 L 5.0,-5.0 L -12.5,0.0 L 5.0,5.0 L 0.0,0.0 z "
         style="fill-rule:evenodd;stroke:#000000;stroke-width:1pt;stroke-opacity:1;fill:#000000;fill-opacity:1"
         transform="scale(0.8) rotate(180) translate(12.5,0)" />
    </marker>
    <marker
       inkscape:stockid="Arrow1Lend"
       orient="auto"
       refY="0.0"
       refX="0.0"
       id="marker4891"
       style="overflow:visible;"
       inkscape:isstock="true">
      <path
         id="path4893"
         d="M 0.0,0.0 L 5.0,-5.0 L -12.5,0.0 L 5.0,5.0 L 0.0,0.0 z "
         style="fill-rule:evenodd;stroke:#000000;stroke-width:1pt;stroke-opacity:1;fill:#000000;fill-opacity:1"
         transform="scale(0.8) rotate(180) translate(12.5,0)" />
    </marker>
    <marker
       inkscape:isstock="true"
       style="overflow:visible;"
       id="marker4801"
       refX="0.0"
       refY="0.0"
       orient="auto"
       inkscape:stockid="Arrow1Lend"
       inkscape:collect="always">
      <path
         transform="scale(0.8) rotate(180) translate(12.5,0)"
         style="fill-rule:evenodd;stroke:#000000;stroke-width:1pt;stroke-opacity:1;fill:#000000;fill-opacity:1"
         d="M 0.0,0.0 L 5.0,-5.0 L -12.5,0.0 L 5.0,5.0 L 0.0,0.0 z "
         id="path4803" />
    </marker>
    <marker
       inkscape:stockid="Arrow1Mend"
       orient="auto"
       refY="0.0"
       refX="0.0"
       id="Arrow1Mend"
       style="overflow:visible;"
       inkscape:isstock="true">
      <path
         id="path4222"
         d="M 0.0,0.0 L 5.0,-5.0 L -12.5,0.0 L 5.0,5.0 L 0.0,0.0 z "
         style="fill-rule:evenodd;stroke:#000000;stroke-width:1pt;stroke-opacity:1;fill:#000000;fill-opacity:1"
         transform="scale(0.4) rotate(180) translate(10,0)" />
    </marker>
    <marker
       inkscape:stockid="Arrow1Lend"
       orient="auto"
       refY="0.0"
       refX="0.0"
       id="marker4679"
       style="overflow:visible;"
       inkscape:isstock="true"
       inkscape:collect="always">
      <path
         id="path4681"
         d="M 0.0,0.0 L 5.0,-5.0 L -12.5,0.0 L 5.0,5.0 L 0.0,0.0 z "
         style="fill-rule:evenodd;stroke:#000000;stroke-width:1pt;stroke-opacity:1;fill:#000000;fill-opacity:1"
         transform="scale(0.8) rotate(180) translate(12.5,0)" />
    </marker>
    <marker
       inkscape:isstock="true"
       style="overflow:visible;"
       id="marker4625"
       refX="0.0"
       refY="0.0"
       orient="auto"
       inkscape:stockid="Arrow1Lend"
       inkscape:collect="always">
      <path
         transform="scale(0.8) rotate(180) translate(12.5,0)"
         style="fill-rule:evenodd;stroke:#000000;stroke-width:1pt;stroke-opacity:1;fill:#000000;fill-opacity:1"
         d="M 0.0,0.0 L 5.0,-5.0 L -12.5,0.0 L 5.0,5.0 L 0.0,0.0 z "
         id="path4627" />
    </marker>
    <marker
       inkscape:stockid="Arrow1Lend"
       orient="auto"
       refY="0.0"
       refX="0.0"
       id="marker4577"
       style="overflow:visible;"
       inkscape:isstock="true"
       inkscape:collect="always">
      <path
         id="path4579"
         d="M 0.0,0.0 L 5.0,-5.0 L -12.5,0.0 L 5.0,5.0 L 0.0,0.0 z "
         style="fill-rule:evenodd;stroke:#000000;stroke-width:1pt;stroke-opacity:1;fill:#000000;fill-opacity:1"
         transform="scale(0.8) rotate(180) translate(12.5,0)" />
    </marker>
    <marker
       inkscape:isstock="true"
       style="overflow:visible;"
       id="marker4533"
       refX="0.0"
       refY="0.0"
       orient="auto"
       inkscape:stockid="Arrow1Lend"
       inkscape:collect="always">
      <path
         transform="scale(0.8) rotate(180) translate(12.5,0)"
         style="fill-rule:evenodd;stroke:#000000;stroke-width:1pt;stroke-opacity:1;fill:#000000;fill-opacity:1"
         d="M 0.0,0.0 L 5.0,-5.0 L -12.5,0.0 L 5.0,5.0 L 0.0,0.0 z "
         id="path4535" />
    </marker>
    <marker
       inkscape:isstock="true"
       style="overflow:visible;"
       id="marker4497"
       refX="0.0"
       refY="0.0"
       orient="auto"
       inkscape:stockid="Arrow1Lend">
      <path
         transform="scale(0.8) rotate(180) translate(12.5,0)"
         style="fill-rule:evenodd;stroke:#000000;stroke-width:1pt;stroke-opacity:1;fill:#000000;fill-opacity:1"
         d="M 0.0,0.0 L 5.0,-5.0 L -12.5,0.0 L 5.0,5.0 L 0.0,0.0 z "
         id="path4499" />
    </marker>
    <marker
       inkscape:stockid="Arrow1Lend"
       orient="auto"
       refY="0.0"
       refX="0.0"
       id="Arrow1Lend"
       style="overflow:visible;"
       inkscape:isstock="true"
       inkscape:collect="always">
      <path
         id="path4216"
         d="M 0.0,0.0 L 5.0,-5.0 L -12.5,0.0 L 5.0,5.0 L 0.0,0.0 z "
         style="fill-rule:evenodd;stroke:#000000;stroke-width:1pt;stroke-opacity:1;fill:#000000;fill-opacity:1"
         transform="scale(0.8) rotate(180) translate(12.5,0)" />
    </marker>
  </defs>
  <sodipodi:namedview
     id="base"
     pagecolor="#ffffff"
     bordercolor="#666666"
     borderopacity="1.0"
     inkscape:pageopacity="0.0"
     inkscape:pageshadow="2"
     inkscape:zoom="0.7"
     inkscape:cx="492.95923"
     inkscape:cy="489.59544"
     inkscape:document-units="px"
     inkscape:current-layer="layer1"
     showgrid="false"
     inkscape:window-width="1280"
     inkscape:window-height="962"
     inkscape:window-x="-8"
     inkscape:window-y="-8"
     inkscape:window-maximized="1" />
  <metadata
     id="metadata7">
    <rdf:RDF>
      <cc:Work
         rdf:about="">
        <dc:format>image/svg+xml</dc:format>
        <dc:type
           rdf:resource="http://purl.org/dc/dcmitype/StillImage" />
        <dc:title></dc:title>
      </cc:Work>
    </rdf:RDF>
  </metadata>
  <g
     inkscape:label="Capa 1"
     inkscape:groupmode="layer"
     id="layer1"
     transform="translate(0,-308.26772)">
    <path
       style="fill:#b6ffff;fill-opacity:1;stroke-linecap:butt;stroke-linejoin:miter"
       id="path3336"
       sodipodi:type="arc"
       sodipodi:cx="123.57142"
       sodipodi:cy="538.79077"
       sodipodi:rx="43.57143"
       sodipodi:ry="37.857143"
       sodipodi:start="0"
       sodipodi:end="6.2830108"
       d="m 167.14285,538.79077 a 43.57143,37.857143 0 0 1 -43.56953,37.85714 43.57143,37.857143 0 0 1 -43.573331,-37.85384 43.57143,37.857143 0 0 1 43.565731,-37.86044 43.57143,37.857143 0 0 1 43.57713,37.85054 l -43.57143,0.007 z" />
    <path
       style="fill:#b6ffff;fill-opacity:1;stroke-linecap:butt;stroke-linejoin:miter"
       id="path3336-3"
       sodipodi:type="arc"
       sodipodi:cx="285.71429"
       sodipodi:cy="536.64795"
       sodipodi:rx="43.57143"
       sodipodi:ry="37.857143"
       sodipodi:start="0"
       sodipodi:end="6.2830108"
       d="m 329.28572,536.64795 a 43.57143,37.857143 0 0 1 -43.56952,37.85714 43.57143,37.857143 0 0 1 -43.57334,-37.85384 43.57143,37.857143 0 0 1 43.56573,-37.86044 43.57143,37.857143 0 0 1 43.57713,37.85053 l -43.57143,0.007 z" />
    <path
       style="fill:#b6ffff;fill-opacity:1;stroke-linecap:butt;stroke-linejoin:miter"
       id="path3336-1"
       sodipodi:type="arc"
       sodipodi:cx="445.71429"
       sodipodi:cy="538.07648"
       sodipodi:rx="43.57143"
       sodipodi:ry="37.857143"
       sodipodi:start="0"
       sodipodi:end="6.2830108"
       d="m 489.28572,538.07648 a 43.57143,37.857143 0 0 1 -43.56952,37.85714 43.57143,37.857143 0 0 1 -43.57334,-37.85384 43.57143,37.857143 0 0 1 43.56573,-37.86045 43.57143,37.857143 0 0 1 43.57713,37.85054 l -43.57143,0.007 z" />
    <path
       style="fill:#b6ffff;fill-opacity:1;stroke-linecap:butt;stroke-linejoin:miter"
       id="path3336-11"
       sodipodi:type="arc"
       sodipodi:cx="614.28564"
       sodipodi:cy="538.07648"
       sodipodi:rx="43.57143"
       sodipodi:ry="37.857143"
       sodipodi:start="0"
       sodipodi:end="6.2830108"
       d="m 657.85707,538.07648 a 43.57143,37.857143 0 0 1 -43.56952,37.85714 43.57143,37.857143 0 0 1 -43.57334,-37.85384 43.57143,37.857143 0 0 1 43.56573,-37.86045 43.57143,37.857143 0 0 1 43.57713,37.85054 l -43.57143,0.007 z"
       inkscape:transform-center-x="-30"
       inkscape:transform-center-y="-2.8571371" />
    <path
       style="fill:#b6ffff;fill-opacity:1;stroke-linecap:butt;stroke-linejoin:miter"
       id="path3336-16"
       sodipodi:type="arc"
       sodipodi:cx="772.85712"
       sodipodi:cy="535.21936"
       sodipodi:rx="43.57143"
       sodipodi:ry="37.857143"
       sodipodi:start="0"
       sodipodi:end="6.2830108"
       d="m 816.42855,535.21936 a 43.57143,37.857143 0 0 1 -43.56953,37.85714 43.57143,37.857143 0 0 1 -43.57333,-37.85384 43.57143,37.857143 0 0 1 43.56572,-37.86044 43.57143,37.857143 0 0 1 43.57714,37.85053 l -43.57143,0.007 z" />
    <path
       style="fill:#b6ffff;fill-opacity:1;stroke-linecap:butt;stroke-linejoin:miter"
       id="path3336-111"
       sodipodi:type="arc"
       sodipodi:cx="931.42859"
       sodipodi:cy="538.07648"
       sodipodi:rx="43.57143"
       sodipodi:ry="37.857143"
       sodipodi:start="0"
       sodipodi:end="6.2830108"
       d="m 975.00002,538.07648 a 43.57143,37.857143 0 0 1 -43.56953,37.85714 43.57143,37.857143 0 0 1 -43.57333,-37.85384 43.57143,37.857143 0 0 1 43.56573,-37.86045 43.57143,37.857143 0 0 1 43.57713,37.85054 l -43.57143,0.007 z" />
    <path
       style="fill:#b6ffff;fill-opacity:1;stroke-linecap:butt;stroke-linejoin:miter"
       id="path3336-8"
       sodipodi:type="arc"
       sodipodi:cx="279.23495"
       sodipodi:cy="821.77045"
       sodipodi:rx="43.57143"
       sodipodi:ry="37.857143"
       sodipodi:start="0"
       sodipodi:end="6.2830108"
       d="m 322.80639,821.77045 a 43.57143,37.857143 0 0 1 -43.56953,37.85714 43.57143,37.857143 0 0 1 -43.57334,-37.85384 43.57143,37.857143 0 0 1 43.56573,-37.86045 43.57143,37.857143 0 0 1 43.57713,37.85054 l -43.57143,0.007 z" />
    <path
       style="fill:#b6ffff;fill-opacity:1;stroke-linecap:butt;stroke-linejoin:miter"
       id="path3336-7"
       sodipodi:type="arc"
       sodipodi:cx="442.85718"
       sodipodi:cy="822.36218"
       sodipodi:rx="43.57143"
       sodipodi:ry="37.857143"
       sodipodi:start="0"
       sodipodi:end="6.2830108"
       d="m 486.42861,822.36218 a 43.57143,37.857143 0 0 1 -43.56953,37.85715 43.57143,37.857143 0 0 1 -43.57333,-37.85384 43.57143,37.857143 0 0 1 43.56573,-37.86045 43.57143,37.857143 0 0 1 43.57713,37.85054 l -43.57143,0.007 z" />
    <path
       style="fill:#b6ffff;fill-opacity:1;stroke-linecap:butt;stroke-linejoin:miter"
       id="path3336-15"
       sodipodi:type="arc"
       sodipodi:cx="772.85712"
       sodipodi:cy="816.64789"
       sodipodi:rx="43.57143"
       sodipodi:ry="37.857143"
       sodipodi:start="0"
       sodipodi:end="6.2830108"
       d="m 816.42855,816.64789 a 43.57143,37.857143 0 0 1 -43.56953,37.85714 43.57143,37.857143 0 0 1 -43.57333,-37.85384 43.57143,37.857143 0 0 1 43.56572,-37.86044 43.57143,37.857143 0 0 1 43.57714,37.85053 l -43.57143,0.007 z" />
    <path
       style="fill:#b6ffff;fill-opacity:1;stroke-linecap:butt;stroke-linejoin:miter"
       id="path3336-2"
       sodipodi:type="arc"
       sodipodi:cx="615.71429"
       sodipodi:cy="818.07654"
       sodipodi:rx="43.57143"
       sodipodi:ry="37.857143"
       sodipodi:start="0"
       sodipodi:end="6.2830108"
       d="m 659.28572,818.07654 a 43.57143,37.857143 0 0 1 -43.56952,37.85714 43.57143,37.857143 0 0 1 -43.57334,-37.85384 43.57143,37.857143 0 0 1 43.56573,-37.86044 43.57143,37.857143 0 0 1 43.57713,37.85053 l -43.57143,0.007 z" />
    <path
       style="fill:#b6ffff;fill-opacity:1;stroke-linecap:butt;stroke-linejoin:miter"
       id="path3336-9"
       sodipodi:type="arc"
       sodipodi:cx="992.85718"
       sodipodi:cy="725.21936"
       sodipodi:rx="43.57143"
       sodipodi:ry="37.857143"
       sodipodi:start="0"
       sodipodi:end="6.2830108"
       d="m 1036.4286,725.21936 a 43.57143,37.857143 0 0 1 -43.56952,37.85714 43.57143,37.857143 0 0 1 -43.57333,-37.85384 43.57143,37.857143 0 0 1 43.56573,-37.86044 43.57143,37.857143 0 0 1 43.57712,37.85053 l -43.57142,0.007 z" />
    <path
       style="fill:none;fill-rule:evenodd;stroke:#000000;stroke-width:1px;stroke-linecap:butt;stroke-linejoin:miter;stroke-opacity:1;marker-end:url(#Arrow1Lend)"
       d="m 165.66502,541.22501 74.75129,0"
       id="path4207"
       inkscape:connector-curvature="0" />
    <path
       style="fill:none;fill-rule:evenodd;stroke:#000000;stroke-width:1px;stroke-linecap:butt;stroke-linejoin:miter;stroke-opacity:1;marker-end:url(#marker4497)"
       d="m 329.30973,539.20471 71.72083,-1.01015"
       id="path4489"
       inkscape:connector-curvature="0" />
    <path
       style="fill:none;fill-rule:evenodd;stroke:#000000;stroke-width:1px;stroke-linecap:butt;stroke-linejoin:miter;stroke-opacity:1;marker-end:url(#marker4533)"
       d="m 488.91383,538.19456 80.81221,0"
       id="path4525"
       inkscape:connector-curvature="0" />
    <path
       style="fill:none;fill-rule:evenodd;stroke:#000000;stroke-width:1px;stroke-linecap:butt;stroke-linejoin:miter;stroke-opacity:1;marker-end:url(#marker4577)"
       d="m 656.59915,538.19456 70.71068,-1.01016"
       id="path4569"
       inkscape:connector-curvature="0" />
    <path
       style="fill:none;fill-rule:evenodd;stroke:#000000;stroke-width:1px;stroke-linecap:butt;stroke-linejoin:miter;stroke-opacity:1;marker-end:url(#marker4625)"
       d="m 815.1931,535.1641 71.72083,-1.01015"
       id="path4617"
       inkscape:connector-curvature="0" />
    <path
       style="fill:none;fill-rule:evenodd;stroke:#000000;stroke-width:1px;stroke-linecap:butt;stroke-linejoin:miter;stroke-opacity:1;marker-end:url(#marker4679)"
       d="m 932.3708,575.5702 1.01015,52.52793"
       id="path4671"
       inkscape:connector-curvature="0" />
    <path
       style="fill:none;fill-rule:evenodd;stroke:#000000;stroke-width:1.03862286px;stroke-linecap:butt;stroke-linejoin:miter;stroke-opacity:1;marker-end:url(#marker4801)"
       d="m 773.77685,571.52959 0,53.39479"
       id="path4731"
       inkscape:connector-curvature="0" />
    <path
       style="fill:none;fill-rule:evenodd;stroke:#000000;stroke-width:1px;stroke-linecap:butt;stroke-linejoin:miter;stroke-opacity:1;marker-end:url(#marker4891)"
       d="m 934.3911,627.08798 -655.589,2.02031 -2.0203,154.55334"
       id="path4883"
       inkscape:connector-curvature="0" />
    <path
       style="fill:none;fill-rule:evenodd;stroke:#000000;stroke-width:1px;stroke-linecap:butt;stroke-linejoin:miter;stroke-opacity:1;marker-end:url(#marker4969)"
       d="m 322.23866,824.06773 75.76144,0"
       id="path4961"
       inkscape:connector-curvature="0" />
    <path
       style="fill:none;fill-rule:evenodd;stroke:#000000;stroke-width:1px;stroke-linecap:butt;stroke-linejoin:miter;stroke-opacity:1;marker-end:url(#marker5053)"
       d="m 485.88337,822.04742 84.85282,-1.01015"
       id="path5045"
       inkscape:connector-curvature="0" />
    <path
       style="fill:none;fill-rule:evenodd;stroke:#000000;stroke-width:1px;stroke-linecap:butt;stroke-linejoin:miter;stroke-opacity:1;marker-end:url(#marker5143)"
       d="m 659.62961,820.02712 67.68022,0"
       id="path5135"
       inkscape:connector-curvature="0" />
    <path
       style="fill:none;fill-rule:evenodd;stroke:#000000;stroke-width:1px;stroke-linecap:butt;stroke-linejoin:miter;stroke-opacity:1;marker-end:url(#marker5341)"
       d="m 124.24876,576.58035 -2.0203,250.51783 110.10663,-2.0203"
       id="path5333"
       inkscape:connector-curvature="0" />
    <path
       style="fill:none;fill-rule:evenodd;stroke:#000000;stroke-width:1px;stroke-linecap:butt;stroke-linejoin:miter;stroke-opacity:1;marker-end:url(#marker5559)"
       d="m 772.85714,855.21935 1.42857,75.71428 -741.428567,-1.42857 1.428571,-497.14286 248.571426,2.85714 -1.42857,61.42858"
       id="path5551"
       inkscape:connector-curvature="0" />
  </g>
</svg>
