<?xml version="1.0" encoding="UTF-8" standalone="no"?>
<!-- Created with Inkscape (http://www.inkscape.org/) -->

<svg
   xmlns:dc="http://purl.org/dc/elements/1.1/"
   xmlns:cc="http://creativecommons.org/ns#"
   xmlns:rdf="http://www.w3.org/1999/02/22-rdf-syntax-ns#"
   xmlns:svg="http://www.w3.org/2000/svg"
   xmlns="http://www.w3.org/2000/svg"
   xmlns:sodipodi="http://sodipodi.sourceforge.net/DTD/sodipodi-0.dtd"
   xmlns:inkscape="http://www.inkscape.org/namespaces/inkscape"
   width="297mm"
   height="210mm"
   viewBox="0 0 1052.3622 744.09448"
   id="svg2"
   version="1.1"
   inkscape:version="0.91 r13725"
   sodipodi:docname="drawing.svg">
  <defs
     id="defs4">
    <marker
       inkscape:isstock="true"
       style="overflow:visible;"
       id="marker5169"
       refX="0.0"
       refY="0.0"
       orient="auto"
       inkscape:stockid="Arrow2Lend">
      <path
         transform="scale(1.1) rotate(180) translate(1,0)"
         d="M 8.7185878,4.0337352 L -2.2072895,0.016013256 L 8.7185884,-4.0017078 C 6.9730900,-1.6296469 6.9831476,1.6157441 8.7185878,4.0337352 z "
         style="fill-rule:evenodd;stroke-width:0.625;stroke-linejoin:round;stroke:#000000;stroke-opacity:1;fill:#000000;fill-opacity:1"
         id="path5171" />
    </marker>
    <marker
       inkscape:isstock="true"
       style="overflow:visible;"
       id="marker5049"
       refX="0.0"
       refY="0.0"
       orient="auto"
       inkscape:stockid="Arrow2Lend">
      <path
         transform="scale(1.1) rotate(180) translate(1,0)"
         d="M 8.7185878,4.0337352 L -2.2072895,0.016013256 L 8.7185884,-4.0017078 C 6.9730900,-1.6296469 6.9831476,1.6157441 8.7185878,4.0337352 z "
         style="fill-rule:evenodd;stroke-width:0.625;stroke-linejoin:round;stroke:#000000;stroke-opacity:1;fill:#000000;fill-opacity:1"
         id="path5051" />
    </marker>
    <marker
       inkscape:stockid="Arrow2Lend"
       orient="auto"
       refY="0.0"
       refX="0.0"
       id="marker4965"
       style="overflow:visible;"
       inkscape:isstock="true"
       inkscape:collect="always">
      <path
         id="path4967"
         style="fill-rule:evenodd;stroke-width:0.625;stroke-linejoin:round;stroke:#000000;stroke-opacity:1;fill:#000000;fill-opacity:1"
         d="M 8.7185878,4.0337352 L -2.2072895,0.016013256 L 8.7185884,-4.0017078 C 6.9730900,-1.6296469 6.9831476,1.6157441 8.7185878,4.0337352 z "
         transform="scale(1.1) rotate(180) translate(1,0)" />
    </marker>
    <marker
       inkscape:stockid="Arrow2Lend"
       orient="auto"
       refY="0.0"
       refX="0.0"
       id="marker4887"
       style="overflow:visible;"
       inkscape:isstock="true">
      <path
         id="path4889"
         style="fill-rule:evenodd;stroke-width:0.625;stroke-linejoin:round;stroke:#000000;stroke-opacity:1;fill:#000000;fill-opacity:1"
         d="M 8.7185878,4.0337352 L -2.2072895,0.016013256 L 8.7185884,-4.0017078 C 6.9730900,-1.6296469 6.9831476,1.6157441 8.7185878,4.0337352 z "
         transform="scale(1.1) rotate(180) translate(1,0)" />
    </marker>
    <marker
       inkscape:stockid="Arrow2Lend"
       orient="auto"
       refY="0.0"
       refX="0.0"
       id="marker4815"
       style="overflow:visible;"
       inkscape:isstock="true">
      <path
         id="path4817"
         style="fill-rule:evenodd;stroke-width:0.625;stroke-linejoin:round;stroke:#000000;stroke-opacity:1;fill:#000000;fill-opacity:1"
         d="M 8.7185878,4.0337352 L -2.2072895,0.016013256 L 8.7185884,-4.0017078 C 6.9730900,-1.6296469 6.9831476,1.6157441 8.7185878,4.0337352 z "
         transform="scale(1.1) rotate(180) translate(1,0)" />
    </marker>
    <marker
       inkscape:isstock="true"
       style="overflow:visible;"
       id="marker4749"
       refX="0.0"
       refY="0.0"
       orient="auto"
       inkscape:stockid="Arrow2Lend"
       inkscape:collect="always">
      <path
         transform="scale(1.1) rotate(180) translate(1,0)"
         d="M 8.7185878,4.0337352 L -2.2072895,0.016013256 L 8.7185884,-4.0017078 C 6.9730900,-1.6296469 6.9831476,1.6157441 8.7185878,4.0337352 z "
         style="fill-rule:evenodd;stroke-width:0.625;stroke-linejoin:round;stroke:#000000;stroke-opacity:1;fill:#000000;fill-opacity:1"
         id="path4751" />
    </marker>
    <marker
       inkscape:isstock="true"
       style="overflow:visible;"
       id="marker4689"
       refX="0.0"
       refY="0.0"
       orient="auto"
       inkscape:stockid="Arrow2Lend">
      <path
         transform="scale(1.1) rotate(180) translate(1,0)"
         d="M 8.7185878,4.0337352 L -2.2072895,0.016013256 L 8.7185884,-4.0017078 C 6.9730900,-1.6296469 6.9831476,1.6157441 8.7185878,4.0337352 z "
         style="fill-rule:evenodd;stroke-width:0.625;stroke-linejoin:round;stroke:#000000;stroke-opacity:1;fill:#000000;fill-opacity:1"
         id="path4691" />
    </marker>
    <marker
       inkscape:isstock="true"
       style="overflow:visible;"
       id="marker4635"
       refX="0.0"
       refY="0.0"
       orient="auto"
       inkscape:stockid="Arrow2Lend"
       inkscape:collect="always">
      <path
         transform="scale(1.1) rotate(180) translate(1,0)"
         d="M 8.7185878,4.0337352 L -2.2072895,0.016013256 L 8.7185884,-4.0017078 C 6.9730900,-1.6296469 6.9831476,1.6157441 8.7185878,4.0337352 z "
         style="fill-rule:evenodd;stroke-width:0.625;stroke-linejoin:round;stroke:#000000;stroke-opacity:1;fill:#000000;fill-opacity:1"
         id="path4637" />
    </marker>
    <marker
       inkscape:isstock="true"
       style="overflow:visible;"
       id="marker4587"
       refX="0.0"
       refY="0.0"
       orient="auto"
       inkscape:stockid="Arrow2Lend">
      <path
         transform="scale(1.1) rotate(180) translate(1,0)"
         d="M 8.7185878,4.0337352 L -2.2072895,0.016013256 L 8.7185884,-4.0017078 C 6.9730900,-1.6296469 6.9831476,1.6157441 8.7185878,4.0337352 z "
         style="fill-rule:evenodd;stroke-width:0.625;stroke-linejoin:round;stroke:#000000;stroke-opacity:1;fill:#000000;fill-opacity:1"
         id="path4589" />
    </marker>
    <marker
       inkscape:isstock="true"
       style="overflow:visible;"
       id="marker4545"
       refX="0.0"
       refY="0.0"
       orient="auto"
       inkscape:stockid="Arrow2Lend">
      <path
         transform="scale(1.1) rotate(180) translate(1,0)"
         d="M 8.7185878,4.0337352 L -2.2072895,0.016013256 L 8.7185884,-4.0017078 C 6.9730900,-1.6296469 6.9831476,1.6157441 8.7185878,4.0337352 z "
         style="fill-rule:evenodd;stroke-width:0.625;stroke-linejoin:round;stroke:#000000;stroke-opacity:1;fill:#000000;fill-opacity:1"
         id="path4547" />
    </marker>
    <marker
       inkscape:isstock="true"
       style="overflow:visible;"
       id="marker4517"
       refX="0.0"
       refY="0.0"
       orient="auto"
       inkscape:stockid="Arrow2Lend">
      <path
         transform="scale(1.1) rotate(180) translate(1,0)"
         d="M 8.7185878,4.0337352 L -2.2072895,0.016013256 L 8.7185884,-4.0017078 C 6.9730900,-1.6296469 6.9831476,1.6157441 8.7185878,4.0337352 z "
         style="fill-rule:evenodd;stroke-width:0.625;stroke-linejoin:round;stroke:#000000;stroke-opacity:1;fill:#000000;fill-opacity:1"
         id="path4519" />
    </marker>
    <marker
       inkscape:stockid="Arrow2Lend"
       orient="auto"
       refY="0.0"
       refX="0.0"
       id="Arrow2Lend"
       style="overflow:visible;"
       inkscape:isstock="true"
       inkscape:collect="always">
      <path
         id="path4216"
         style="fill-rule:evenodd;stroke-width:0.625;stroke-linejoin:round;stroke:#000000;stroke-opacity:1;fill:#000000;fill-opacity:1"
         d="M 8.7185878,4.0337352 L -2.2072895,0.016013256 L 8.7185884,-4.0017078 C 6.9730900,-1.6296469 6.9831476,1.6157441 8.7185878,4.0337352 z "
         transform="scale(1.1) rotate(180) translate(1,0)" />
    </marker>
    <marker
       inkscape:isstock="true"
       style="overflow:visible"
       id="marker5169-2"
       refX="0"
       refY="0"
       orient="auto"
       inkscape:stockid="Arrow2Lend">
      <path
         inkscape:connector-curvature="0"
         transform="matrix(-1.1,0,0,-1.1,-1.1,0)"
         d="M 8.7185878,4.0337352 -2.2072895,0.01601326 8.7185884,-4.0017078 c -1.7454984,2.3720609 -1.7354408,5.6174519 -6e-7,8.035443 z"
         style="fill:#000000;fill-opacity:1;fill-rule:evenodd;stroke:#000000;stroke-width:0.625;stroke-linejoin:round;stroke-opacity:1"
         id="path5171-8" />
    </marker>
    <marker
       inkscape:isstock="true"
       style="overflow:visible"
       id="marker5169-7"
       refX="0"
       refY="0"
       orient="auto"
       inkscape:stockid="Arrow2Lend">
      <path
         inkscape:connector-curvature="0"
         transform="matrix(-1.1,0,0,-1.1,-1.1,0)"
         d="M 8.7185878,4.0337352 -2.2072895,0.01601326 8.7185884,-4.0017078 c -1.7454984,2.3720609 -1.7354408,5.6174519 -6e-7,8.035443 z"
         style="fill:#000000;fill-opacity:1;fill-rule:evenodd;stroke:#000000;stroke-width:0.625;stroke-linejoin:round;stroke-opacity:1"
         id="path5171-0" />
    </marker>
    <marker
       inkscape:isstock="true"
       style="overflow:visible"
       id="marker5169-8"
       refX="0"
       refY="0"
       orient="auto"
       inkscape:stockid="Arrow2Lend">
      <path
         inkscape:connector-curvature="0"
         transform="matrix(-1.1,0,0,-1.1,-1.1,0)"
         d="M 8.7185878,4.0337352 -2.2072895,0.01601326 8.7185884,-4.0017078 c -1.7454984,2.3720609 -1.7354408,5.6174519 -6e-7,8.035443 z"
         style="fill:#000000;fill-opacity:1;fill-rule:evenodd;stroke:#000000;stroke-width:0.625;stroke-linejoin:round;stroke-opacity:1"
         id="path5171-5" />
    </marker>
    <marker
       inkscape:isstock="true"
       style="overflow:visible"
       id="marker5169-9"
       refX="0"
       refY="0"
       orient="auto"
       inkscape:stockid="Arrow2Lend">
      <path
         inkscape:connector-curvature="0"
         transform="matrix(-1.1,0,0,-1.1,-1.1,0)"
         d="M 8.7185878,4.0337352 -2.2072895,0.01601326 8.7185884,-4.0017078 c -1.7454984,2.3720609 -1.7354408,5.6174519 -6e-7,8.035443 z"
         style="fill:#000000;fill-opacity:1;fill-rule:evenodd;stroke:#000000;stroke-width:0.625;stroke-linejoin:round;stroke-opacity:1"
         id="path5171-2" />
    </marker>
  </defs>
  <sodipodi:namedview
     id="base"
     pagecolor="#ffffff"
     bordercolor="#666666"
     borderopacity="1.0"
     inkscape:pageopacity="0.0"
     inkscape:pageshadow="2"
     inkscape:zoom="0.7"
     inkscape:cx="506.28756"
     inkscape:cy="269.44325"
     inkscape:document-units="px"
     inkscape:current-layer="layer1"
     showgrid="false"
     inkscape:window-width="1280"
     inkscape:window-height="962"
     inkscape:window-x="-8"
     inkscape:window-y="-8"
     inkscape:window-maximized="1" />
  <metadata
     id="metadata7">
    <rdf:RDF>
      <cc:Work
         rdf:about="">
        <dc:format>image/svg+xml</dc:format>
        <dc:type
           rdf:resource="http://purl.org/dc/dcmitype/StillImage" />
        <dc:title></dc:title>
      </cc:Work>
    </rdf:RDF>
  </metadata>
  <g
     inkscape:label="Capa 1"
     inkscape:groupmode="layer"
     id="layer1"
     transform="translate(0,-308.26772)">
    <text
       xml:space="preserve"
       style="font-style:normal;font-weight:normal;font-size:25px;line-height:125%;font-family:sans-serif;text-align:center;letter-spacing:0px;word-spacing:0px;text-anchor:middle;fill:#000000;fill-opacity:1;stroke:none;stroke-width:1px;stroke-linecap:butt;stroke-linejoin:miter;stroke-opacity:1;"
       x="517.11499"
       y="358.07648"
       id="text3336"
       sodipodi:linespacing="125%"><tspan
         sodipodi:role="line"
         id="tspan3338"
         x="517.11499"
         y="358.07648">Condition_detect finite state machines</tspan></text>
    <path
       style="fill:#c5ffff;fill-opacity:0.97159095"
       id="path3340"
       sodipodi:type="arc"
       sodipodi:cx="140.71429"
       sodipodi:cy="564.50507"
       sodipodi:rx="80.714287"
       sodipodi:ry="76.428574"
       sodipodi:start="0"
       sodipodi:end="6.2830108"
       d="m 221.42858,564.50507 a 80.714287,76.428574 0 0 1 -80.71076,76.42857 80.714287,76.428574 0 0 1 -80.717812,-76.42191 80.714287,76.428574 0 0 1 80.703722,-76.43524 80.714287,76.428574 0 0 1 80.72485,76.41524 l -80.71429,0.0133 z" />
    <path
       style="fill:#c5ffff;fill-opacity:0.97159095"
       id="path3340-8"
       sodipodi:type="arc"
       sodipodi:cx="388.57141"
       sodipodi:cy="565.2193"
       sodipodi:rx="80.714287"
       sodipodi:ry="76.428574"
       sodipodi:start="0"
       sodipodi:end="6.2830108"
       d="m 469.2857,565.2193 a 80.714287,76.428574 0 0 1 -80.71077,76.42857 80.714287,76.428574 0 0 1 -80.71781,-76.4219 80.714287,76.428574 0 0 1 80.70373,-76.43524 80.714287,76.428574 0 0 1 80.72485,76.41523 l -80.71429,0.0133 z" />
    <path
       style="fill:#c5ffff;fill-opacity:0.97159095"
       id="path3340-85"
       sodipodi:type="arc"
       sodipodi:cx="651.42859"
       sodipodi:cy="566.64795"
       sodipodi:rx="80.714287"
       sodipodi:ry="76.428574"
       sodipodi:start="0"
       sodipodi:end="6.2830108"
       d="m 732.14288,566.64795 a 80.714287,76.428574 0 0 1 -80.71077,76.42857 80.714287,76.428574 0 0 1 -80.71781,-76.4219 80.714287,76.428574 0 0 1 80.70372,-76.43524 80.714287,76.428574 0 0 1 80.72485,76.41523 l -80.71428,0.0133 z" />
    <path
       style="fill:#c5ffff;fill-opacity:0.97159095"
       id="path3340-7"
       sodipodi:type="arc"
       sodipodi:cx="911.42859"
       sodipodi:cy="563.79083"
       sodipodi:rx="80.714287"
       sodipodi:ry="76.428574"
       sodipodi:start="0"
       sodipodi:end="6.2830108"
       d="m 992.14288,563.79083 a 80.714287,76.428574 0 0 1 -80.71077,76.42858 80.714287,76.428574 0 0 1 -80.71781,-76.42191 80.714287,76.428574 0 0 1 80.70372,-76.43524 80.714287,76.428574 0 0 1 80.72485,76.41524 l -80.71428,0.0133 z" />
    <path
       style="fill:#c5ffff;fill-opacity:0.97159095"
       id="path3340-3"
       sodipodi:type="arc"
       sodipodi:cx="390"
       sodipodi:cy="835.2193"
       sodipodi:rx="80.714287"
       sodipodi:ry="76.428574"
       sodipodi:start="0"
       sodipodi:end="6.2830108"
       d="m 470.71429,835.2193 a 80.714287,76.428574 0 0 1 -80.71077,76.42857 80.714287,76.428574 0 0 1 -80.71781,-76.4219 80.714287,76.428574 0 0 1 80.70373,-76.43524 80.714287,76.428574 0 0 1 80.72485,76.41523 L 390,835.2193 Z" />
    <path
       style="fill:#c5ffff;fill-opacity:0.97159095"
       id="path3340-2"
       sodipodi:type="arc"
       sodipodi:cx="658.57141"
       sodipodi:cy="835.21936"
       sodipodi:rx="80.714287"
       sodipodi:ry="76.428574"
       sodipodi:start="0"
       sodipodi:end="6.2830108"
       d="m 739.2857,835.21936 a 80.714287,76.428574 0 0 1 -80.71077,76.42857 80.714287,76.428574 0 0 1 -80.71781,-76.4219 80.714287,76.428574 0 0 1 80.70373,-76.43524 80.714287,76.428574 0 0 1 80.72485,76.41523 l -80.71429,0.0133 z" />
    <path
       style="fill:none;fill-rule:evenodd;stroke:#000000;stroke-width:1px;stroke-linecap:butt;stroke-linejoin:miter;stroke-opacity:1;fill-opacity:1;marker-end:url(#Arrow2Lend)"
       d="m 221.42857,563.79077 c 82.85714,0 84.28572,0 84.28572,0"
       id="path3381"
       inkscape:connector-curvature="0" />
    <path
       style="fill:none;fill-rule:evenodd;stroke:#000000;stroke-width:1px;stroke-linecap:butt;stroke-linejoin:miter;stroke-opacity:1;marker-end:url(#marker4517)"
       d="m 468.57143,563.79077 100,0"
       id="path4507"
       inkscape:connector-curvature="0" />
    <path
       style="fill:none;fill-rule:evenodd;stroke:#000000;stroke-width:1px;stroke-linecap:butt;stroke-linejoin:miter;stroke-opacity:1;marker-end:url(#marker4545)"
       d="m 731.42857,565.21935 97.14286,0"
       id="path4537"
       inkscape:connector-curvature="0" />
    <path
       style="fill:none;fill-rule:evenodd;stroke:#000000;stroke-width:1px;stroke-linecap:butt;stroke-linejoin:miter;stroke-opacity:1;marker-end:url(#marker4587)"
       d="M 652.85714,755.21935 651.42857,643.79077"
       id="path4579"
       inkscape:connector-curvature="0" />
    <path
       style="fill:none;fill-rule:evenodd;stroke:#000000;stroke-width:1px;stroke-linecap:butt;stroke-linejoin:miter;stroke-opacity:1;marker-end:url(#marker4635)"
       d="m 135.71429,640.93363 -2.85715,198.57143 171.42857,-1.42857"
       id="path4627"
       inkscape:connector-curvature="0" />
    <path
       style="fill:none;fill-rule:evenodd;stroke:#000000;stroke-width:1px;stroke-linecap:butt;stroke-linejoin:miter;stroke-opacity:1;marker-end:url(#marker4689)"
       d="m 468.57143,835.21935 108.57143,0"
       id="path4681"
       inkscape:connector-curvature="0" />
    <path
       style="fill:none;fill-rule:evenodd;stroke:#000000;stroke-width:1px;stroke-linecap:butt;stroke-linejoin:miter;stroke-opacity:1;marker-end:url(#marker4749)"
       d="m 388.57143,912.3622 -1.42857,65.71429 632.85714,1.42857 -4.2857,-568.57143 -882.85716,-2.85714 1.42857,78.57143"
       id="path4741"
       inkscape:connector-curvature="0" />
    <path
       style="fill:none;fill-rule:evenodd;stroke:#000000;stroke-width:1px;stroke-linecap:butt;stroke-linejoin:miter;stroke-opacity:1;marker-end:url(#marker4815)"
       d="m 390,486.64792 0,-78.57143"
       id="path4807"
       inkscape:connector-curvature="0" />
    <path
       style="fill:none;fill-rule:evenodd;stroke:#000000;stroke-width:1px;stroke-linecap:butt;stroke-linejoin:miter;stroke-opacity:1;marker-end:url(#marker4887)"
       d="M 651.42857,490.93363 650,409.50506"
       id="path4879"
       inkscape:connector-curvature="0" />
    <path
       style="fill:none;fill-rule:evenodd;stroke:#000000;stroke-width:1px;stroke-linecap:butt;stroke-linejoin:miter;stroke-opacity:1;marker-end:url(#marker4965)"
       d="m 912.85714,486.64792 -1.42857,-77.14286"
       id="path4957"
       inkscape:connector-curvature="0" />
    <path
       style="fill:none;fill-rule:evenodd;stroke:#000000;stroke-width:1px;stroke-linecap:butt;stroke-linejoin:miter;stroke-opacity:1;marker-end:url(#marker5049)"
       d="m 657.14286,913.79077 0,64.28572"
       id="path5041"
       inkscape:connector-curvature="0" />
    <path
       style="fill:none;fill-opacity:1;stroke-linecap:butt;stroke-linejoin:miter"
       id="path5147"
       d="m 232.68007,678.27012 c 7.83759,-1.69947 37.23785,-19.24916 7.00429,-2.04941 4.15979,-2.19332 7.40446,-5.81713 11.46506,-8.13968 6.49379,-3.71426 13.03087,-7.35233 19.5463,-11.02849 0.59856,-0.13566 1.18241,-0.38287 1.79567,-0.40697 4.74305,-0.18641 10.48564,3.92139 14.39361,6.13216 6.25393,4.17876 13.38405,7.40955 18.7738,12.74272 3.09592,3.45069 3.54591,7.74055 3.70324,12.17146 -0.12585,4.59189 -1.71283,8.77536 -3.78075,12.80044 -2.2523,4.16558 -5.86346,7.19135 -9.62344,9.93845 -5.03142,3.5458 -9.9786,7.21046 -15.0576,10.68801 -3.68217,2.59005 -7.60452,4.79572 -11.25614,7.43084 -7.44201,5.69954 -15.38384,9.56869 -23.87504,14.25344 -5.48713,3.02735 21.67562,-12.58825 16.31827,-9.33676 -6.41356,3.89253 -12.99185,7.50694 -19.48778,11.2604 -0.57897,0.3131 -1.15795,0.6262 -1.73692,0.93929 5.4062,-3.06798 10.76909,-6.21357 16.21861,-9.20394 0.60773,-0.33348 -1.11092,0.8299 -1.67985,1.22596 -0.93731,0.6525 -2.32856,1.5401 -3.32151,2.11241 -6.49877,3.74565 -13.01357,7.46343 -19.52036,11.19515 -3.50886,1.59865 -7.03773,3.16993 -10.66999,4.47483 -3.27311,1.1396 -6.49972,2.23456 -9.93866,2.74974 -3.47548,0.65155 -5.72077,0.16145 -8.97134,-0.98305 -3.00782,-1.27752 -4.04003,-3.90704 -4.97024,-6.79513 -0.93609,-3.05663 -1.13662,-6.2619 -2.20055,-9.28471 -0.16861,-0.43425 -0.33723,-0.86851 -0.50584,-1.30276 0,0 18.38333,-10.22582 18.38333,-10.22582 l 0,0 c 0.17023,0.45533 0.34046,0.91066 0.5107,1.366 1.05553,3.03324 1.39426,6.20835 2.2562,9.29009 0.79543,2.31244 1.28122,4.35037 3.90867,5.14013 2.78412,0.82766 5.51746,0.75018 8.36093,0.14372 3.29189,-0.70727 6.44323,-1.86656 9.61472,-2.98343 3.56719,-1.42329 7.12088,-2.91521 10.52111,-4.7058 -5.42273,3.14939 -10.84024,6.30778 -16.2682,9.44816 -0.56375,0.32616 1.11267,-0.67746 1.6754,-1.00539 2.70489,-1.5763 0.79114,-0.33569 3.42068,-2.13787 6.45581,-3.90984 12.94395,-7.7661 19.42692,-11.63076 0.57491,-0.34272 1.16418,-0.66075 1.74627,-0.99113 -42.25671,24.43227 1.605,-0.94408 3.26433,-1.8295 5.55889,-2.96623 -10.89305,6.33571 -16.32659,9.52575 -2.21699,1.3016 6.60407,-3.83344 4.38592,-3.03474 3.78433,-2.61363 7.58972,-5.15694 11.50405,-7.57102 5.11248,-3.4284 10.09654,-7.02631 15.0612,-10.66715 3.72183,-2.43273 7.27808,-5.19841 9.74901,-8.95246 2.18477,-3.68839 3.97674,-7.48873 4.37163,-11.82535 -0.17384,-3.87263 -0.28062,-7.73631 -2.89903,-10.85676 -5.1142,-5.25712 -11.78944,-8.75941 -18.01353,-12.50651 -4.74578,-2.41977 -10.22261,-6.16487 -15.64634,-3.75692 5.43754,-3.17271 10.88777,-6.32376 16.3126,-9.51814 0.5904,-0.34766 -1.2239,0.6196 -1.80825,0.97733 -3.61181,2.21104 -6.64801,5.30654 -10.34279,7.41585 -13.75099,8.01677 -27.22883,16.91421 -42.36176,22.18048 0,0 16.56998,-12.87316 16.56998,-12.87316 z"
       inkscape:connector-curvature="0" />
    <path
       style="fill:none;fill-rule:evenodd;stroke:#000000;stroke-width:1px;stroke-linecap:butt;stroke-linejoin:miter;stroke-opacity:1;marker-end:url(#marker5169)"
       d="m 215.71429,545.21935 c 13.63234,1.32592 109.55237,-129.14739 -44.28572,-51.42857"
       id="path5159"
       inkscape:connector-curvature="0"
       sodipodi:nodetypes="cc" />
    <path
       style="fill:none;fill-rule:evenodd;stroke:#000000;stroke-width:1px;stroke-linecap:butt;stroke-linejoin:miter;stroke-opacity:1;marker-end:url(#marker5169-2)"
       d="m 468.78142,547.57589 c 13.63234,4.54878 109.55237,-128.98693 -44.28572,-51.42857"
       id="path5159-7"
       inkscape:connector-curvature="0"
       sodipodi:nodetypes="cc" />
    <path
       style="fill:none;fill-rule:evenodd;stroke:#000000;stroke-width:1px;stroke-linecap:butt;stroke-linejoin:miter;stroke-opacity:1;marker-end:url(#marker5169-7)"
       d="m 731.63856,546.14732 c 13.63234,1.32592 109.55237,-129.14739 -44.28572,-51.42857"
       id="path5159-6"
       inkscape:connector-curvature="0"
       sodipodi:nodetypes="cc" />
    <path
       style="fill:none;fill-rule:evenodd;stroke:#000000;stroke-width:1px;stroke-linecap:butt;stroke-linejoin:miter;stroke-opacity:1;marker-end:url(#marker5169-8)"
       d="m 741.63856,820.43304 c 13.63234,1.32592 109.55237,-129.14739 -44.28572,-51.42857"
       id="path5159-4"
       inkscape:connector-curvature="0"
       sodipodi:nodetypes="cc" />
    <path
       style="fill:none;fill-rule:evenodd;stroke:#000000;stroke-width:1px;stroke-linecap:butt;stroke-linejoin:miter;stroke-opacity:1;marker-end:url(#marker5169-9)"
       d="m 465.92427,813.29018 c 13.63234,1.32592 109.55237,-129.14739 -44.28572,-51.42857"
       id="path5159-3"
       inkscape:connector-curvature="0"
       sodipodi:nodetypes="cc" />
    <text
       xml:space="preserve"
       style="font-style:normal;font-weight:normal;font-size:15px;line-height:125%;font-family:sans-serif;letter-spacing:0px;word-spacing:0px;fill:#000000;fill-opacity:1;stroke:none;stroke-width:1px;stroke-linecap:butt;stroke-linejoin:miter;stroke-opacity:1"
       x="121.42857"
       y="522.36224"
       id="text6438"
       sodipodi:linespacing="125%"><tspan
         sodipodi:role="line"
         id="tspan6440"
         x="121.42857"
         y="522.36224">INIT</tspan></text>
    <text
       xml:space="preserve"
       style="font-style:normal;font-weight:normal;font-size:15px;line-height:125%;font-family:sans-serif;letter-spacing:0px;word-spacing:0px;fill:#000000;fill-opacity:1;stroke:none;stroke-width:1px;stroke-linecap:butt;stroke-linejoin:miter;stroke-opacity:1"
       x="354.28571"
       y="518.07654"
       id="text6442"
       sodipodi:linespacing="125%"><tspan
         sodipodi:role="line"
         id="tspan6444"
         x="354.28571"
         y="518.07654">   Start</tspan><tspan
         sodipodi:role="line"
         x="354.28571"
         y="536.82654"
         id="tspan6446">detecting</tspan></text>
    <text
       xml:space="preserve"
       style="font-style:normal;font-weight:normal;font-size:15px;line-height:125%;font-family:sans-serif;letter-spacing:0px;word-spacing:0px;fill:#000000;fill-opacity:1;stroke:none;stroke-width:1px;stroke-linecap:butt;stroke-linejoin:miter;stroke-opacity:1"
       x="620"
       y="519.50507"
       id="text6448"
       sodipodi:linespacing="125%"><tspan
         sodipodi:role="line"
         id="tspan6450"
         x="620"
         y="519.50507">   Start</tspan><tspan
         sodipodi:role="line"
         x="620"
         y="538.25507"
         id="tspan6452">detected</tspan></text>
    <text
       xml:space="preserve"
       style="font-style:normal;font-weight:normal;font-size:15px;line-height:125%;font-family:sans-serif;letter-spacing:0px;word-spacing:0px;fill:#000000;fill-opacity:1;stroke:none;stroke-width:1px;stroke-linecap:butt;stroke-linejoin:miter;stroke-opacity:1"
       x="892.85718"
       y="522.36218"
       id="text6454"
       sodipodi:linespacing="125%"><tspan
         sodipodi:role="line"
         id="tspan6456"
         x="892.85718"
         y="522.36218">Error</tspan></text>
    <text
       xml:space="preserve"
       style="font-style:normal;font-weight:normal;font-size:15px;line-height:125%;font-family:sans-serif;letter-spacing:0px;word-spacing:0px;fill:#000000;fill-opacity:1;stroke:none;stroke-width:1px;stroke-linecap:butt;stroke-linejoin:miter;stroke-opacity:1"
       x="355.71429"
       y="790.93365"
       id="text6458"
       sodipodi:linespacing="125%"><tspan
         sodipodi:role="line"
         id="tspan6460"
         x="355.71429"
         y="790.93365">   Stop</tspan><tspan
         sodipodi:role="line"
         x="355.71429"
         y="809.68365"
         id="tspan6462">detecting</tspan></text>
    <text
       xml:space="preserve"
       style="font-style:normal;font-weight:normal;font-size:15px;line-height:125%;font-family:sans-serif;letter-spacing:0px;word-spacing:0px;fill:#000000;fill-opacity:1;stroke:none;stroke-width:1px;stroke-linecap:butt;stroke-linejoin:miter;stroke-opacity:1"
       x="624.28571"
       y="786.64795"
       id="text6464"
       sodipodi:linespacing="125%"><tspan
         sodipodi:role="line"
         id="tspan6466"
         x="624.28571"
         y="786.64795">   Stop</tspan><tspan
         sodipodi:role="line"
         x="624.28571"
         y="805.39795"
         id="tspan6468">detected</tspan></text>
    <text
       xml:space="preserve"
       style="font-style:normal;font-weight:normal;font-size:15px;line-height:125%;font-family:sans-serif;letter-spacing:0px;word-spacing:0px;fill:#000000;fill-opacity:1;stroke:none;stroke-width:1px;stroke-linecap:butt;stroke-linejoin:miter;stroke-opacity:1"
       x="220"
       y="580.93365"
       id="text6470"
       sodipodi:linespacing="125%"><tspan
         sodipodi:role="line"
         id="tspan6472"
         x="220"
         y="580.93365">SCL_in='1'</tspan><tspan
         sodipodi:role="line"
         x="220"
         y="599.68365"
         id="tspan6474">SDA_in='1'</tspan></text>
    <text
       xml:space="preserve"
       style="font-style:normal;font-weight:normal;font-size:15px;line-height:125%;font-family:sans-serif;letter-spacing:0px;word-spacing:0px;fill:#000000;fill-opacity:1;stroke:none;stroke-width:1px;stroke-linecap:butt;stroke-linejoin:miter;stroke-opacity:1"
       x="236.1349"
       y="471.87253"
       id="text6470-8"
       sodipodi:linespacing="125%"><tspan
         sodipodi:role="line"
         x="236.1349"
         y="471.87253"
         id="tspan6474-2">SCL_in='0'</tspan></text>
    <text
       xml:space="preserve"
       style="font-style:normal;font-weight:normal;font-size:15px;line-height:125%;font-family:sans-serif;letter-spacing:0px;word-spacing:0px;fill:#000000;fill-opacity:1;stroke:none;stroke-width:1px;stroke-linecap:butt;stroke-linejoin:miter;stroke-opacity:1"
       x="394.77188"
       y="438.39038"
       id="text6470-8-9"
       sodipodi:linespacing="125%"><tspan
         sodipodi:role="line"
         x="394.77188"
         y="438.39038"
         id="tspan6474-2-3">SCL_in='0'</tspan></text>
    <text
       xml:space="preserve"
       style="font-style:normal;font-weight:normal;font-size:15px;line-height:125%;font-family:sans-serif;letter-spacing:0px;word-spacing:0px;fill:#000000;fill-opacity:1;stroke:none;stroke-width:1px;stroke-linecap:butt;stroke-linejoin:miter;stroke-opacity:1"
       x="653.34338"
       y="438.39041"
       id="text6470-8-95"
       sodipodi:linespacing="125%"><tspan
         sodipodi:role="line"
         x="653.34338"
         y="438.39041"
         id="tspan6474-2-7">SCL_in='0'</tspan></text>
    <text
       xml:space="preserve"
       style="font-style:normal;font-weight:normal;font-size:15px;line-height:125%;font-family:sans-serif;letter-spacing:0px;word-spacing:0px;fill:#000000;fill-opacity:1;stroke:none;stroke-width:1px;stroke-linecap:butt;stroke-linejoin:miter;stroke-opacity:1"
       x="916.20044"
       y="441.24753"
       id="text6470-8-4"
       sodipodi:linespacing="125%"><tspan
         sodipodi:role="line"
         x="916.20044"
         y="441.24753"
         id="tspan6474-2-4">SCL_in='0'</tspan></text>
    <text
       xml:space="preserve"
       style="font-style:normal;font-weight:normal;font-size:15px;line-height:125%;font-family:sans-serif;letter-spacing:0px;word-spacing:0px;fill:#000000;fill-opacity:1;stroke:none;stroke-width:1px;stroke-linecap:butt;stroke-linejoin:miter;stroke-opacity:1"
       x="394.77191"
       y="969.81897"
       id="text6470-8-9-1"
       sodipodi:linespacing="125%"><tspan
         sodipodi:role="line"
         x="394.77191"
         y="969.81897"
         id="tspan6474-2-3-3">SCL_in='0'</tspan></text>
    <text
       xml:space="preserve"
       style="font-style:normal;font-weight:normal;font-size:15px;line-height:125%;font-family:sans-serif;letter-spacing:0px;word-spacing:0px;fill:#000000;fill-opacity:1;stroke:none;stroke-width:1px;stroke-linecap:butt;stroke-linejoin:miter;stroke-opacity:1"
       x="663.34332"
       y="971.24756"
       id="text6470-8-9-7"
       sodipodi:linespacing="125%"><tspan
         sodipodi:role="line"
         x="663.34332"
         y="971.24756"
         id="tspan6474-2-3-2">SCL_in='0'</tspan></text>
    <text
       xml:space="preserve"
       style="font-style:normal;font-weight:normal;font-size:15px;line-height:125%;font-family:sans-serif;letter-spacing:0px;word-spacing:0px;fill:#000000;fill-opacity:1;stroke:none;stroke-width:1px;stroke-linecap:butt;stroke-linejoin:miter;stroke-opacity:1"
       x="508.99207"
       y="469.01538"
       id="text6470-0"
       sodipodi:linespacing="125%"><tspan
         sodipodi:role="line"
         id="tspan6472-8"
         x="508.99207"
         y="469.01538">SCL_in='1'</tspan><tspan
         sodipodi:role="line"
         x="508.99207"
         y="487.76538"
         id="tspan6474-4">SDA_in='1'</tspan></text>
    <text
       xml:space="preserve"
       style="font-style:normal;font-weight:normal;font-size:15px;line-height:125%;font-family:sans-serif;letter-spacing:0px;word-spacing:0px;fill:#000000;fill-opacity:1;stroke:none;stroke-width:1px;stroke-linecap:butt;stroke-linejoin:miter;stroke-opacity:1"
       x="471.84918"
       y="577.58685"
       id="text6470-6"
       sodipodi:linespacing="125%"><tspan
         sodipodi:role="line"
         id="tspan6472-2"
         x="471.84918"
         y="577.58685">SCL_in='1'</tspan><tspan
         sodipodi:role="line"
         x="471.84918"
         y="596.33685"
         id="tspan6474-0">SDA_in='0'</tspan></text>
    <text
       xml:space="preserve"
       style="font-style:normal;font-weight:normal;font-size:15px;line-height:125%;font-family:sans-serif;letter-spacing:0px;word-spacing:0px;fill:#000000;fill-opacity:1;stroke:none;stroke-width:1px;stroke-linecap:butt;stroke-linejoin:miter;stroke-opacity:1"
       x="768.99207"
       y="461.87256"
       id="text6470-6-4"
       sodipodi:linespacing="125%"><tspan
         sodipodi:role="line"
         id="tspan6472-2-9"
         x="768.99207"
         y="461.87256">SCL_in='1'</tspan><tspan
         sodipodi:role="line"
         x="768.99207"
         y="480.62256"
         id="tspan6474-0-0">SDA_in='0'</tspan></text>
    <text
       xml:space="preserve"
       style="font-style:normal;font-weight:normal;font-size:15px;line-height:125%;font-family:sans-serif;letter-spacing:0px;word-spacing:0px;fill:#000000;fill-opacity:1;stroke:none;stroke-width:1px;stroke-linecap:butt;stroke-linejoin:miter;stroke-opacity:1"
       x="651.84918"
       y="696.1582"
       id="text6470-6-2"
       sodipodi:linespacing="125%"><tspan
         sodipodi:role="line"
         id="tspan6472-2-3"
         x="651.84918"
         y="696.1582">SCL_in='1'</tspan><tspan
         sodipodi:role="line"
         x="651.84918"
         y="714.9082"
         id="tspan6474-0-5">SDA_in='0'</tspan></text>
    <text
       xml:space="preserve"
       style="font-style:normal;font-weight:normal;font-size:15px;line-height:125%;font-family:sans-serif;letter-spacing:0px;word-spacing:0px;fill:#000000;fill-opacity:1;stroke:none;stroke-width:1px;stroke-linecap:butt;stroke-linejoin:miter;stroke-opacity:1"
       x="734.70636"
       y="581.87256"
       id="text6470-3"
       sodipodi:linespacing="125%"><tspan
         sodipodi:role="line"
         id="tspan6472-1"
         x="734.70636"
         y="581.87256">SCL_in='1'</tspan><tspan
         sodipodi:role="line"
         x="734.70636"
         y="600.62256"
         id="tspan6474-6">SDA_in='1'</tspan></text>
    <text
       xml:space="preserve"
       style="font-style:normal;font-weight:normal;font-size:15px;line-height:125%;font-family:sans-serif;letter-spacing:0px;word-spacing:0px;fill:#000000;fill-opacity:1;stroke:none;stroke-width:1px;stroke-linecap:butt;stroke-linejoin:miter;stroke-opacity:1"
       x="188.99203"
       y="856.15826"
       id="text6470-6-5"
       sodipodi:linespacing="125%"><tspan
         sodipodi:role="line"
         id="tspan6472-2-5"
         x="188.99203"
         y="856.15826">SCL_in='1'</tspan><tspan
         sodipodi:role="line"
         x="188.99203"
         y="874.90826"
         id="tspan6474-0-57">SDA_in='0'</tspan></text>
    <text
       xml:space="preserve"
       style="font-style:normal;font-weight:normal;font-size:15px;line-height:125%;font-family:sans-serif;letter-spacing:0px;word-spacing:0px;fill:#000000;fill-opacity:1;stroke:none;stroke-width:1px;stroke-linecap:butt;stroke-linejoin:miter;stroke-opacity:1"
       x="473.27774"
       y="851.87256"
       id="text6470-3-8"
       sodipodi:linespacing="125%"><tspan
         sodipodi:role="line"
         id="tspan6472-1-7"
         x="473.27774"
         y="851.87256">SCL_in='1'</tspan><tspan
         sodipodi:role="line"
         x="473.27774"
         y="870.62256"
         id="tspan6474-6-8">SDA_in='1'</tspan></text>
    <text
       xml:space="preserve"
       style="font-style:normal;font-weight:normal;font-size:15px;line-height:125%;font-family:sans-serif;letter-spacing:0px;word-spacing:0px;fill:#000000;fill-opacity:1;stroke:none;stroke-width:1px;stroke-linecap:butt;stroke-linejoin:miter;stroke-opacity:1"
       x="766.13489"
       y="720.44397"
       id="text6470-3-8-1"
       sodipodi:linespacing="125%"><tspan
         sodipodi:role="line"
         id="tspan6472-1-7-2"
         x="766.13489"
         y="720.44397">SCL_in='1'</tspan><tspan
         sodipodi:role="line"
         x="766.13489"
         y="739.19397"
         id="tspan6474-6-8-2">SDA_in='1'</tspan></text>
    <text
       xml:space="preserve"
       style="font-style:normal;font-weight:normal;font-size:15px;line-height:125%;font-family:sans-serif;letter-spacing:0px;word-spacing:0px;fill:#000000;fill-opacity:1;stroke:none;stroke-width:1px;stroke-linecap:butt;stroke-linejoin:miter;stroke-opacity:1"
       x="473.27774"
       y="716.15826"
       id="text6470-6-2-7"
       sodipodi:linespacing="125%"><tspan
         sodipodi:role="line"
         id="tspan6472-2-3-1"
         x="473.27774"
         y="716.15826">SCL_in='1'</tspan><tspan
         sodipodi:role="line"
         x="473.27774"
         y="734.90826"
         id="tspan6474-0-5-1">SDA_in='0'</tspan></text>
    <text
       xml:space="preserve"
       style="font-style:normal;font-weight:normal;font-size:15px;line-height:125%;font-family:sans-serif;letter-spacing:0px;word-spacing:0px;fill:#000000;fill-opacity:1;stroke:none;stroke-width:1px;stroke-linecap:butt;stroke-linejoin:miter;stroke-opacity:1"
       x="620"
       y="603.79077"
       id="text6840"
       sodipodi:linespacing="125%"><tspan
         sodipodi:role="line"
         id="tspan6842"
         x="620"
         y="603.79077">start='1'</tspan></text>
    <text
       xml:space="preserve"
       style="font-style:normal;font-weight:normal;font-size:15px;line-height:125%;font-family:sans-serif;letter-spacing:0px;word-spacing:0px;fill:#000000;fill-opacity:1;stroke:none;stroke-width:1px;stroke-linecap:butt;stroke-linejoin:miter;stroke-opacity:1"
       x="881.9859"
       y="607.9469"
       id="text6840-7"
       sodipodi:linespacing="125%"><tspan
         sodipodi:role="line"
         id="tspan6842-6"
         x="881.9859"
         y="607.9469">error='1'</tspan></text>
    <text
       xml:space="preserve"
       style="font-style:normal;font-weight:normal;font-size:15px;line-height:125%;font-family:sans-serif;letter-spacing:0px;word-spacing:0px;fill:#000000;fill-opacity:1;stroke:none;stroke-width:1px;stroke-linecap:butt;stroke-linejoin:miter;stroke-opacity:1"
       x="629.12878"
       y="877.9469"
       id="text6840-9"
       sodipodi:linespacing="125%"><tspan
         sodipodi:role="line"
         id="tspan6842-4"
         x="629.12878"
         y="877.9469">stop='1'</tspan></text>
    <text
       xml:space="preserve"
       style="font-style:normal;font-weight:normal;font-size:19.12977409px;line-height:125%;font-family:sans-serif;letter-spacing:0px;word-spacing:0px;fill:#000000;fill-opacity:1;stroke:none;stroke-width:1px;stroke-linecap:butt;stroke-linejoin:miter;stroke-opacity:1"
       x="413.6095"
       y="815.453"
       id="text6870"
       sodipodi:linespacing="125%"
       transform="scale(0.80125495,1.2480422)"><tspan
         sodipodi:role="line"
         id="tspan6872"
         x="413.6095"
         y="815.453">If sync_rst='0', all process transfer to INIT.</tspan></text>
  </g>
</svg>
